<mxfile host="app.diagrams.net" agent="Mozilla/5.0 (X11; Linux x86_64) AppleWebKit/537.36 (KHTML, like Gecko) Chrome/130.0.0.0 Safari/537.36" version="24.8.3">
  <diagram id="yVPtV3qq9rrrtyrMJAWA" name="Page-1">
    <mxGraphModel dx="2074" dy="976" grid="1" gridSize="5" guides="1" tooltips="1" connect="1" arrows="1" fold="1" page="1" pageScale="1" pageWidth="850" pageHeight="1100" math="0" shadow="0">
      <root>
        <mxCell id="0" />
        <mxCell id="1" parent="0" />
        <mxCell id="qjV9_AFUOHTW7ia8DruR-47" style="edgeStyle=orthogonalEdgeStyle;rounded=0;orthogonalLoop=1;jettySize=auto;html=1;fontSize=10;" parent="1" source="qjV9_AFUOHTW7ia8DruR-1" edge="1">
          <mxGeometry relative="1" as="geometry">
            <mxPoint x="520" y="319" as="targetPoint" />
            <Array as="points">
              <mxPoint x="520" y="100" />
              <mxPoint x="520" y="319" />
            </Array>
          </mxGeometry>
        </mxCell>
        <mxCell id="qjV9_AFUOHTW7ia8DruR-48" value="Hold and Initialize" style="text;html=1;resizable=0;points=[];align=center;verticalAlign=middle;labelBackgroundColor=none;fontSize=10;rotation=-90;" parent="qjV9_AFUOHTW7ia8DruR-47" vertex="1" connectable="0">
          <mxGeometry x="0.2181" y="3" relative="1" as="geometry">
            <mxPoint x="-10" as="offset" />
          </mxGeometry>
        </mxCell>
        <mxCell id="qjV9_AFUOHTW7ia8DruR-1" value="Application" style="rounded=0;whiteSpace=wrap;html=1;" parent="1" vertex="1">
          <mxGeometry x="360" y="80" width="120" height="40" as="geometry" />
        </mxCell>
        <mxCell id="qjV9_AFUOHTW7ia8DruR-42" style="edgeStyle=orthogonalEdgeStyle;rounded=0;orthogonalLoop=1;jettySize=auto;html=1;fontSize=10;entryX=0;entryY=0.5;entryDx=0;entryDy=0;" parent="1" source="qjV9_AFUOHTW7ia8DruR-2" target="qjV9_AFUOHTW7ia8DruR-38" edge="1">
          <mxGeometry relative="1" as="geometry">
            <Array as="points">
              <mxPoint x="120" y="220" />
              <mxPoint x="120" y="660" />
            </Array>
            <mxPoint x="330" y="685" as="targetPoint" />
          </mxGeometry>
        </mxCell>
        <mxCell id="qjV9_AFUOHTW7ia8DruR-2" value="&lt;p style=&quot;line-height: 40%&quot;&gt;Features1&lt;/p&gt;&lt;p style=&quot;font-size: 10px&quot;&gt;Domain Objects&lt;/p&gt;" style="rounded=0;whiteSpace=wrap;html=1;align=center;" parent="1" vertex="1">
          <mxGeometry x="180" y="200" width="120" height="40" as="geometry" />
        </mxCell>
        <mxCell id="qjV9_AFUOHTW7ia8DruR-8" style="edgeStyle=orthogonalEdgeStyle;rounded=0;orthogonalLoop=1;jettySize=auto;html=1;exitX=0.5;exitY=1;exitDx=0;exitDy=0;" parent="1" source="qjV9_AFUOHTW7ia8DruR-49" target="qjV9_AFUOHTW7ia8DruR-9" edge="1">
          <mxGeometry relative="1" as="geometry">
            <mxPoint x="420" y="320" as="targetPoint" />
            <mxPoint x="420" y="240" as="sourcePoint" />
            <Array as="points">
              <mxPoint x="400" y="280" />
              <mxPoint x="320" y="280" />
            </Array>
          </mxGeometry>
        </mxCell>
        <mxCell id="qjV9_AFUOHTW7ia8DruR-32" value="Implemetation" style="text;html=1;resizable=0;points=[];align=center;verticalAlign=middle;labelBackgroundColor=none;direction=south;rotation=0;fontSize=10;" parent="qjV9_AFUOHTW7ia8DruR-8" vertex="1" connectable="0">
          <mxGeometry x="-0.1198" relative="1" as="geometry">
            <mxPoint x="-39.5" y="-10" as="offset" />
          </mxGeometry>
        </mxCell>
        <mxCell id="qjV9_AFUOHTW7ia8DruR-53" style="edgeStyle=orthogonalEdgeStyle;rounded=0;orthogonalLoop=1;jettySize=auto;html=1;exitX=0.5;exitY=1;exitDx=0;exitDy=0;fontSize=10;" parent="1" source="qjV9_AFUOHTW7ia8DruR-9" edge="1">
          <mxGeometry relative="1" as="geometry">
            <mxPoint x="420.04761904761904" y="400.1428571428571" as="targetPoint" />
          </mxGeometry>
        </mxCell>
        <mxCell id="qjV9_AFUOHTW7ia8DruR-9" value="Central Services and Resources Manager" style="rounded=0;whiteSpace=wrap;html=1;" parent="1" vertex="1">
          <mxGeometry x="300" y="320" width="240" height="40" as="geometry" />
        </mxCell>
        <mxCell id="rO7RS0zUkaJ6YgURNLqs-19" style="edgeStyle=orthogonalEdgeStyle;rounded=0;orthogonalLoop=1;jettySize=auto;html=1;entryX=0.5;entryY=0;entryDx=0;entryDy=0;" edge="1" parent="1" source="qjV9_AFUOHTW7ia8DruR-10" target="qjV9_AFUOHTW7ia8DruR-14">
          <mxGeometry relative="1" as="geometry">
            <Array as="points">
              <mxPoint x="580" y="540" />
              <mxPoint x="240" y="540" />
            </Array>
          </mxGeometry>
        </mxCell>
        <mxCell id="rO7RS0zUkaJ6YgURNLqs-21" style="edgeStyle=orthogonalEdgeStyle;rounded=0;orthogonalLoop=1;jettySize=auto;html=1;entryX=0.5;entryY=0;entryDx=0;entryDy=0;" edge="1" parent="1" source="qjV9_AFUOHTW7ia8DruR-10" target="qjV9_AFUOHTW7ia8DruR-30">
          <mxGeometry relative="1" as="geometry">
            <Array as="points">
              <mxPoint x="580" y="620" />
              <mxPoint x="420" y="620" />
            </Array>
          </mxGeometry>
        </mxCell>
        <mxCell id="qjV9_AFUOHTW7ia8DruR-10" value="Resources&lt;div&gt;Manager&lt;/div&gt;" style="rounded=0;whiteSpace=wrap;html=1;" parent="1" vertex="1">
          <mxGeometry x="540" y="460" width="80" height="40" as="geometry" />
        </mxCell>
        <mxCell id="rO7RS0zUkaJ6YgURNLqs-17" style="edgeStyle=orthogonalEdgeStyle;rounded=0;orthogonalLoop=1;jettySize=auto;html=1;entryX=0.5;entryY=0;entryDx=0;entryDy=0;" edge="1" parent="1" source="qjV9_AFUOHTW7ia8DruR-14" target="qjV9_AFUOHTW7ia8DruR-30">
          <mxGeometry relative="1" as="geometry">
            <Array as="points">
              <mxPoint x="240" y="620" />
              <mxPoint x="420" y="620" />
            </Array>
          </mxGeometry>
        </mxCell>
        <mxCell id="qjV9_AFUOHTW7ia8DruR-14" value="Local Persistence" style="rounded=0;whiteSpace=wrap;html=1;" parent="1" vertex="1">
          <mxGeometry x="180" y="560" width="120" height="40" as="geometry" />
        </mxCell>
        <mxCell id="qjV9_AFUOHTW7ia8DruR-30" value="&lt;div&gt;Core Components:&lt;/div&gt;Abstract or Interface" style="rounded=0;whiteSpace=wrap;html=1;" parent="1" vertex="1">
          <mxGeometry x="360" y="640" width="120" height="40" as="geometry" />
        </mxCell>
        <mxCell id="rO7RS0zUkaJ6YgURNLqs-20" style="edgeStyle=orthogonalEdgeStyle;rounded=0;orthogonalLoop=1;jettySize=auto;html=1;entryX=0.5;entryY=0;entryDx=0;entryDy=0;" edge="1" parent="1" source="qjV9_AFUOHTW7ia8DruR-12" target="qjV9_AFUOHTW7ia8DruR-14">
          <mxGeometry relative="1" as="geometry">
            <Array as="points">
              <mxPoint x="480" y="540" />
              <mxPoint x="240" y="540" />
            </Array>
          </mxGeometry>
        </mxCell>
        <mxCell id="rO7RS0zUkaJ6YgURNLqs-22" style="edgeStyle=orthogonalEdgeStyle;rounded=0;orthogonalLoop=1;jettySize=auto;html=1;entryX=0.5;entryY=0;entryDx=0;entryDy=0;" edge="1" parent="1" source="qjV9_AFUOHTW7ia8DruR-12" target="qjV9_AFUOHTW7ia8DruR-30">
          <mxGeometry relative="1" as="geometry">
            <Array as="points">
              <mxPoint x="480" y="620" />
              <mxPoint x="420" y="620" />
            </Array>
          </mxGeometry>
        </mxCell>
        <mxCell id="qjV9_AFUOHTW7ia8DruR-12" value="Service" style="rounded=0;whiteSpace=wrap;html=1;" parent="1" vertex="1">
          <mxGeometry x="445" y="460" width="80" height="40" as="geometry" />
        </mxCell>
        <mxCell id="rO7RS0zUkaJ6YgURNLqs-18" style="edgeStyle=orthogonalEdgeStyle;rounded=0;orthogonalLoop=1;jettySize=auto;html=1;entryX=0.5;entryY=0;entryDx=0;entryDy=0;" edge="1" parent="1" source="qjV9_AFUOHTW7ia8DruR-17" target="qjV9_AFUOHTW7ia8DruR-30">
          <mxGeometry relative="1" as="geometry" />
        </mxCell>
        <mxCell id="qjV9_AFUOHTW7ia8DruR-17" value="Network" style="rounded=0;whiteSpace=wrap;html=1;" parent="1" vertex="1">
          <mxGeometry x="320" y="560" width="80" height="40" as="geometry" />
        </mxCell>
        <mxCell id="rO7RS0zUkaJ6YgURNLqs-11" value="" style="edgeStyle=orthogonalEdgeStyle;rounded=0;orthogonalLoop=1;jettySize=auto;html=1;" edge="1" parent="1" source="qjV9_AFUOHTW7ia8DruR-38" target="qjV9_AFUOHTW7ia8DruR-30">
          <mxGeometry relative="1" as="geometry" />
        </mxCell>
        <mxCell id="rO7RS0zUkaJ6YgURNLqs-12" style="edgeStyle=orthogonalEdgeStyle;rounded=0;orthogonalLoop=1;jettySize=auto;html=1;entryX=0;entryY=0.5;entryDx=0;entryDy=0;" edge="1" parent="1" source="qjV9_AFUOHTW7ia8DruR-38" target="qjV9_AFUOHTW7ia8DruR-39">
          <mxGeometry relative="1" as="geometry" />
        </mxCell>
        <mxCell id="qjV9_AFUOHTW7ia8DruR-38" value="Base: Base Android Components" style="rounded=0;whiteSpace=wrap;html=1;labelBackgroundColor=none;fontSize=10;" parent="1" vertex="1">
          <mxGeometry x="160" y="640" width="120" height="40" as="geometry" />
        </mxCell>
        <mxCell id="qjV9_AFUOHTW7ia8DruR-39" value="Core: Abstract" style="rounded=0;whiteSpace=wrap;html=1;labelBackgroundColor=none;fontSize=10;" parent="1" vertex="1">
          <mxGeometry x="360" y="725" width="120" height="40" as="geometry" />
        </mxCell>
        <mxCell id="qjV9_AFUOHTW7ia8DruR-49" value="&lt;p style=&quot;line-height: 40%&quot;&gt;Features x&lt;/p&gt;&lt;p style=&quot;font-size: 10px&quot;&gt;Domain Objects&lt;/p&gt;" style="rounded=0;whiteSpace=wrap;html=1;align=center;" parent="1" vertex="1">
          <mxGeometry x="340" y="200" width="120" height="40" as="geometry" />
        </mxCell>
        <mxCell id="qjV9_AFUOHTW7ia8DruR-50" value="" style="endArrow=none;html=1;fontSize=10;entryX=0.5;entryY=1;entryDx=0;entryDy=0;rounded=0;" parent="1" target="qjV9_AFUOHTW7ia8DruR-2" edge="1">
          <mxGeometry width="50" height="50" relative="1" as="geometry">
            <mxPoint x="320" y="280" as="sourcePoint" />
            <mxPoint x="220" y="290" as="targetPoint" />
            <Array as="points">
              <mxPoint x="240" y="280" />
            </Array>
          </mxGeometry>
        </mxCell>
        <mxCell id="qjV9_AFUOHTW7ia8DruR-70" value="" style="endArrow=classic;html=1;fontSize=10;entryX=0.5;entryY=0;entryDx=0;entryDy=0;exitX=0.5;exitY=1;exitDx=0;exitDy=0;" parent="1" target="qjV9_AFUOHTW7ia8DruR-39" edge="1" source="qjV9_AFUOHTW7ia8DruR-30">
          <mxGeometry width="50" height="50" relative="1" as="geometry">
            <mxPoint x="420" y="680" as="sourcePoint" />
            <mxPoint x="420" y="795" as="targetPoint" />
          </mxGeometry>
        </mxCell>
        <mxCell id="qjV9_AFUOHTW7ia8DruR-76" value="&lt;font style=&quot;font-size: 9px&quot;&gt;Keep and provide Instance&amp;nbsp;&amp;nbsp;&lt;/font&gt;" style="text;html=1;strokeColor=none;fillColor=none;align=center;verticalAlign=middle;whiteSpace=wrap;rounded=0;dashed=1;labelBackgroundColor=none;fontSize=10;" parent="1" vertex="1">
          <mxGeometry x="410" y="340" width="130" height="20" as="geometry" />
        </mxCell>
        <mxCell id="qjV9_AFUOHTW7ia8DruR-78" style="edgeStyle=orthogonalEdgeStyle;rounded=0;orthogonalLoop=1;jettySize=auto;html=1;exitX=0;exitY=0.5;exitDx=0;exitDy=0;fontSize=10;" parent="1" source="qjV9_AFUOHTW7ia8DruR-1" edge="1">
          <mxGeometry relative="1" as="geometry">
            <mxPoint x="325" y="160" as="targetPoint" />
            <mxPoint x="219.25862068965512" y="120.24137931034488" as="sourcePoint" />
            <Array as="points">
              <mxPoint x="325" y="100" />
            </Array>
          </mxGeometry>
        </mxCell>
        <mxCell id="qjV9_AFUOHTW7ia8DruR-85" value="" style="endArrow=classic;html=1;fontSize=10;entryX=0.5;entryY=0;entryDx=0;entryDy=0;" parent="1" target="qjV9_AFUOHTW7ia8DruR-2" edge="1">
          <mxGeometry width="50" height="50" relative="1" as="geometry">
            <mxPoint x="240" y="160" as="sourcePoint" />
            <mxPoint x="279.5" y="200.00000000000023" as="targetPoint" />
          </mxGeometry>
        </mxCell>
        <mxCell id="qjV9_AFUOHTW7ia8DruR-86" value="" style="endArrow=none;html=1;fontSize=10;" parent="1" edge="1">
          <mxGeometry width="50" height="50" relative="1" as="geometry">
            <mxPoint x="240" y="160" as="sourcePoint" />
            <mxPoint x="400" y="160" as="targetPoint" />
          </mxGeometry>
        </mxCell>
        <mxCell id="qjV9_AFUOHTW7ia8DruR-87" value="" style="endArrow=classic;html=1;fontSize=10;entryX=0.5;entryY=0;entryDx=0;entryDy=0;" parent="1" target="qjV9_AFUOHTW7ia8DruR-49" edge="1">
          <mxGeometry width="50" height="50" relative="1" as="geometry">
            <mxPoint x="400" y="160" as="sourcePoint" />
            <mxPoint x="400" y="200" as="targetPoint" />
          </mxGeometry>
        </mxCell>
        <mxCell id="qjV9_AFUOHTW7ia8DruR-92" value="Features" style="text;html=1;strokeColor=none;fillColor=none;align=center;verticalAlign=middle;whiteSpace=wrap;rounded=0;dashed=1;labelBackgroundColor=none;fontSize=10;" parent="1" vertex="1">
          <mxGeometry x="165" y="180" width="40" height="20" as="geometry" />
        </mxCell>
        <mxCell id="qjV9_AFUOHTW7ia8DruR-93" value="" style="rounded=0;whiteSpace=wrap;html=1;dashed=1;labelBackgroundColor=none;fillColor=none;fontSize=10;" parent="1" vertex="1">
          <mxGeometry x="160" y="180" width="320" height="80" as="geometry" />
        </mxCell>
        <mxCell id="rO7RS0zUkaJ6YgURNLqs-10" value="" style="endArrow=classic;html=1;rounded=0;exitX=1;exitY=0.5;exitDx=0;exitDy=0;entryX=0;entryY=0.5;entryDx=0;entryDy=0;" edge="1" parent="1" source="qjV9_AFUOHTW7ia8DruR-38" target="qjV9_AFUOHTW7ia8DruR-30">
          <mxGeometry width="50" height="50" relative="1" as="geometry">
            <mxPoint x="525" y="530" as="sourcePoint" />
            <mxPoint x="575" y="480" as="targetPoint" />
          </mxGeometry>
        </mxCell>
      </root>
    </mxGraphModel>
  </diagram>
</mxfile>
